<mxfile host="app.diagrams.net" agent="Mozilla/5.0 (X11; Linux x86_64; rv:142.0) Gecko/20100101 Firefox/142.0" version="28.2.0">
  <diagram name="Page-1" id="bEowEVcCOuP3XK1JTVFx">
    <mxGraphModel dx="1846" dy="1871" grid="1" gridSize="10" guides="1" tooltips="1" connect="1" arrows="0" fold="1" page="0" pageScale="1" pageWidth="850" pageHeight="1100" math="0" shadow="0" adaptiveColors="none">
      <root>
        <mxCell id="0" />
        <mxCell id="1" parent="0" />
        <mxCell id="pMtkfUqyW9QqRJvnxvzZ-6" value="" style="edgeStyle=orthogonalEdgeStyle;rounded=0;sketch=1;hachureGap=4;jiggle=2;curveFitting=1;orthogonalLoop=1;jettySize=auto;html=1;fontFamily=Architects Daughter;fontSource=https%3A%2F%2Ffonts.googleapis.com%2Fcss%3Ffamily%3DArchitects%2BDaughter;" parent="1" source="pMtkfUqyW9QqRJvnxvzZ-1" target="pMtkfUqyW9QqRJvnxvzZ-4" edge="1">
          <mxGeometry relative="1" as="geometry">
            <Array as="points">
              <mxPoint x="860" y="160" />
              <mxPoint x="860" y="160" />
            </Array>
          </mxGeometry>
        </mxCell>
        <mxCell id="pMtkfUqyW9QqRJvnxvzZ-9" style="edgeStyle=orthogonalEdgeStyle;rounded=0;sketch=1;hachureGap=4;jiggle=2;curveFitting=1;orthogonalLoop=1;jettySize=auto;html=1;exitX=1;exitY=0.25;exitDx=0;exitDy=0;entryX=0;entryY=0.25;entryDx=0;entryDy=0;fontFamily=Architects Daughter;fontSource=https%3A%2F%2Ffonts.googleapis.com%2Fcss%3Ffamily%3DArchitects%2BDaughter;" parent="1" source="pMtkfUqyW9QqRJvnxvzZ-1" target="pMtkfUqyW9QqRJvnxvzZ-5" edge="1">
          <mxGeometry relative="1" as="geometry">
            <Array as="points">
              <mxPoint x="890" y="135" />
              <mxPoint x="890" y="90" />
              <mxPoint x="1050" y="90" />
              <mxPoint x="1050" y="135" />
            </Array>
          </mxGeometry>
        </mxCell>
        <mxCell id="pMtkfUqyW9QqRJvnxvzZ-1" value="USB - Type C" style="rounded=1;whiteSpace=wrap;html=1;hachureGap=4;fontFamily=Architects Daughter;fontSource=https%3A%2F%2Ffonts.googleapis.com%2Fcss%3Ffamily%3DArchitects%2BDaughter;" parent="1" vertex="1">
          <mxGeometry x="720" y="110" width="120" height="100" as="geometry" />
        </mxCell>
        <mxCell id="pMtkfUqyW9QqRJvnxvzZ-25" style="edgeStyle=orthogonalEdgeStyle;rounded=0;sketch=1;hachureGap=4;jiggle=2;curveFitting=1;orthogonalLoop=1;jettySize=auto;html=1;entryX=0.5;entryY=1;entryDx=0;entryDy=0;fontFamily=Architects Daughter;fontSource=https%3A%2F%2Ffonts.googleapis.com%2Fcss%3Ffamily%3DArchitects%2BDaughter;" parent="1" source="pMtkfUqyW9QqRJvnxvzZ-3" target="pMtkfUqyW9QqRJvnxvzZ-5" edge="1">
          <mxGeometry relative="1" as="geometry" />
        </mxCell>
        <mxCell id="pMtkfUqyW9QqRJvnxvzZ-3" value="&lt;div&gt;Power&amp;nbsp;&lt;/div&gt;&lt;div&gt;Management&lt;/div&gt;" style="rounded=1;whiteSpace=wrap;html=1;hachureGap=4;fontFamily=Architects Daughter;fontSource=https%3A%2F%2Ffonts.googleapis.com%2Fcss%3Ffamily%3DArchitects%2BDaughter;" parent="1" vertex="1">
          <mxGeometry x="970" y="320" width="120" height="100" as="geometry" />
        </mxCell>
        <mxCell id="pMtkfUqyW9QqRJvnxvzZ-7" value="" style="edgeStyle=orthogonalEdgeStyle;rounded=0;sketch=1;hachureGap=4;jiggle=2;curveFitting=1;orthogonalLoop=1;jettySize=auto;html=1;fontFamily=Architects Daughter;fontSource=https%3A%2F%2Ffonts.googleapis.com%2Fcss%3Ffamily%3DArchitects%2BDaughter;" parent="1" source="pMtkfUqyW9QqRJvnxvzZ-4" target="pMtkfUqyW9QqRJvnxvzZ-5" edge="1">
          <mxGeometry relative="1" as="geometry" />
        </mxCell>
        <mxCell id="pMtkfUqyW9QqRJvnxvzZ-4" value="&lt;div&gt;USB-UART&lt;/div&gt;&lt;div&gt;Bridge&lt;/div&gt;" style="rounded=1;whiteSpace=wrap;html=1;hachureGap=4;fontFamily=Architects Daughter;fontSource=https%3A%2F%2Ffonts.googleapis.com%2Fcss%3Ffamily%3DArchitects%2BDaughter;" parent="1" vertex="1">
          <mxGeometry x="910" y="110" width="120" height="100" as="geometry" />
        </mxCell>
        <mxCell id="pMtkfUqyW9QqRJvnxvzZ-46" style="edgeStyle=orthogonalEdgeStyle;rounded=0;sketch=1;hachureGap=4;jiggle=2;curveFitting=1;orthogonalLoop=1;jettySize=auto;html=1;exitX=1;exitY=0.75;exitDx=0;exitDy=0;entryX=0;entryY=0.5;entryDx=0;entryDy=0;fontFamily=Architects Daughter;fontSource=https%3A%2F%2Ffonts.googleapis.com%2Fcss%3Ffamily%3DArchitects%2BDaughter;" parent="1" source="pMtkfUqyW9QqRJvnxvzZ-5" target="pMtkfUqyW9QqRJvnxvzZ-45" edge="1">
          <mxGeometry relative="1" as="geometry">
            <Array as="points">
              <mxPoint x="1540" y="185" />
              <mxPoint x="1540" y="130" />
            </Array>
          </mxGeometry>
        </mxCell>
        <mxCell id="pMtkfUqyW9QqRJvnxvzZ-5" value="&lt;div&gt;ESP32&lt;/div&gt;&lt;div&gt;S3-Mini&lt;/div&gt;" style="rounded=1;whiteSpace=wrap;html=1;hachureGap=4;fontFamily=Architects Daughter;fontSource=https%3A%2F%2Ffonts.googleapis.com%2Fcss%3Ffamily%3DArchitects%2BDaughter;" parent="1" vertex="1">
          <mxGeometry x="1240" y="110" width="120" height="100" as="geometry" />
        </mxCell>
        <mxCell id="pMtkfUqyW9QqRJvnxvzZ-10" value="USB OTG" style="text;html=1;align=center;verticalAlign=middle;resizable=0;points=[];autosize=1;strokeColor=none;fillColor=none;fontFamily=Architects Daughter;fontSource=https%3A%2F%2Ffonts.googleapis.com%2Fcss%3Ffamily%3DArchitects%2BDaughter;" parent="1" vertex="1">
          <mxGeometry x="930" y="60" width="80" height="30" as="geometry" />
        </mxCell>
        <mxCell id="pMtkfUqyW9QqRJvnxvzZ-11" value="" style="rounded=1;whiteSpace=wrap;html=1;sketch=1;hachureGap=4;jiggle=2;curveFitting=1;fontFamily=Architects Daughter;fontSource=https%3A%2F%2Ffonts.googleapis.com%2Fcss%3Ffamily%3DArchitects%2BDaughter;dashed=1;dashPattern=8 8;fillColor=none;" parent="1" vertex="1">
          <mxGeometry x="700" y="40" width="420" height="210" as="geometry" />
        </mxCell>
        <mxCell id="pMtkfUqyW9QqRJvnxvzZ-12" value="BOOT Options" style="text;html=1;align=center;verticalAlign=middle;resizable=0;points=[];autosize=1;strokeColor=none;fillColor=none;fontFamily=Architects Daughter;fontSource=https%3A%2F%2Ffonts.googleapis.com%2Fcss%3Ffamily%3DArchitects%2BDaughter;" parent="1" vertex="1">
          <mxGeometry x="850" y="10" width="100" height="30" as="geometry" />
        </mxCell>
        <mxCell id="pMtkfUqyW9QqRJvnxvzZ-13" value="Gyroscope" style="whiteSpace=wrap;html=1;sketch=1;hachureGap=4;jiggle=2;curveFitting=1;fontFamily=Architects Daughter;fontSource=https%3A%2F%2Ffonts.googleapis.com%2Fcss%3Ffamily%3DArchitects%2BDaughter;" parent="1" vertex="1">
          <mxGeometry x="1080" y="-230" width="120" height="60" as="geometry" />
        </mxCell>
        <mxCell id="pMtkfUqyW9QqRJvnxvzZ-14" value="Accelerometer" style="whiteSpace=wrap;html=1;sketch=1;hachureGap=4;jiggle=2;curveFitting=1;fontFamily=Architects Daughter;fontSource=https%3A%2F%2Ffonts.googleapis.com%2Fcss%3Ffamily%3DArchitects%2BDaughter;" parent="1" vertex="1">
          <mxGeometry x="1220" y="-230" width="120" height="60" as="geometry" />
        </mxCell>
        <mxCell id="pMtkfUqyW9QqRJvnxvzZ-29" style="edgeStyle=orthogonalEdgeStyle;rounded=0;sketch=1;hachureGap=4;jiggle=2;curveFitting=1;orthogonalLoop=1;jettySize=auto;html=1;fontFamily=Architects Daughter;fontSource=https%3A%2F%2Ffonts.googleapis.com%2Fcss%3Ffamily%3DArchitects%2BDaughter;" parent="1" source="pMtkfUqyW9QqRJvnxvzZ-15" edge="1">
          <mxGeometry relative="1" as="geometry">
            <mxPoint x="1300" y="110" as="targetPoint" />
            <Array as="points">
              <mxPoint x="1460" y="-30" />
              <mxPoint x="1300" y="-30" />
            </Array>
          </mxGeometry>
        </mxCell>
        <mxCell id="pMtkfUqyW9QqRJvnxvzZ-52" value="UART" style="edgeLabel;html=1;align=center;verticalAlign=middle;resizable=0;points=[];sketch=1;hachureGap=4;jiggle=2;curveFitting=1;fontFamily=Architects Daughter;fontSource=https%3A%2F%2Ffonts.googleapis.com%2Fcss%3Ffamily%3DArchitects%2BDaughter;" parent="pMtkfUqyW9QqRJvnxvzZ-29" vertex="1" connectable="0">
          <mxGeometry x="-0.6478" y="4" relative="1" as="geometry">
            <mxPoint as="offset" />
          </mxGeometry>
        </mxCell>
        <mxCell id="pMtkfUqyW9QqRJvnxvzZ-15" value="GPS" style="whiteSpace=wrap;html=1;sketch=1;hachureGap=4;jiggle=2;curveFitting=1;fontFamily=Architects Daughter;fontSource=https%3A%2F%2Ffonts.googleapis.com%2Fcss%3Ffamily%3DArchitects%2BDaughter;" parent="1" vertex="1">
          <mxGeometry x="1400" y="-230" width="120" height="60" as="geometry" />
        </mxCell>
        <mxCell id="pMtkfUqyW9QqRJvnxvzZ-20" value="Sensor Modules" style="text;html=1;align=center;verticalAlign=middle;resizable=0;points=[];autosize=1;strokeColor=none;fillColor=none;fontFamily=Architects Daughter;fontSource=https%3A%2F%2Ffonts.googleapis.com%2Fcss%3Ffamily%3DArchitects%2BDaughter;" parent="1" vertex="1">
          <mxGeometry x="1250" y="-340" width="110" height="30" as="geometry" />
        </mxCell>
        <mxCell id="pMtkfUqyW9QqRJvnxvzZ-23" value="" style="edgeStyle=orthogonalEdgeStyle;rounded=0;sketch=1;hachureGap=4;jiggle=2;curveFitting=1;orthogonalLoop=1;jettySize=auto;html=1;fontFamily=Architects Daughter;fontSource=https%3A%2F%2Ffonts.googleapis.com%2Fcss%3Ffamily%3DArchitects%2BDaughter;" parent="1" source="pMtkfUqyW9QqRJvnxvzZ-21" target="pMtkfUqyW9QqRJvnxvzZ-3" edge="1">
          <mxGeometry relative="1" as="geometry" />
        </mxCell>
        <mxCell id="pMtkfUqyW9QqRJvnxvzZ-21" value="5V" style="text;html=1;align=center;verticalAlign=middle;resizable=0;points=[];autosize=1;strokeColor=none;fillColor=none;fontFamily=Architects Daughter;fontSource=https%3A%2F%2Ffonts.googleapis.com%2Fcss%3Ffamily%3DArchitects%2BDaughter;" parent="1" vertex="1">
          <mxGeometry x="840" y="338" width="40" height="30" as="geometry" />
        </mxCell>
        <mxCell id="pMtkfUqyW9QqRJvnxvzZ-24" value="" style="edgeStyle=orthogonalEdgeStyle;rounded=0;sketch=1;hachureGap=4;jiggle=2;curveFitting=1;orthogonalLoop=1;jettySize=auto;html=1;fontFamily=Architects Daughter;fontSource=https%3A%2F%2Ffonts.googleapis.com%2Fcss%3Ffamily%3DArchitects%2BDaughter;" parent="1" source="pMtkfUqyW9QqRJvnxvzZ-22" target="pMtkfUqyW9QqRJvnxvzZ-3" edge="1">
          <mxGeometry relative="1" as="geometry" />
        </mxCell>
        <mxCell id="pMtkfUqyW9QqRJvnxvzZ-22" value="3V3" style="text;html=1;align=center;verticalAlign=middle;resizable=0;points=[];autosize=1;strokeColor=none;fillColor=none;fontFamily=Architects Daughter;fontSource=https%3A%2F%2Ffonts.googleapis.com%2Fcss%3Ffamily%3DArchitects%2BDaughter;" parent="1" vertex="1">
          <mxGeometry x="840" y="368" width="40" height="30" as="geometry" />
        </mxCell>
        <mxCell id="pMtkfUqyW9QqRJvnxvzZ-19" value="" style="whiteSpace=wrap;html=1;hachureGap=4;fontFamily=Architects Daughter;fontSource=https%3A%2F%2Ffonts.googleapis.com%2Fcss%3Ffamily%3DArchitects%2BDaughter;fillColor=none;dashed=1;dashPattern=8 8;rounded=1;strokeWidth=2;" parent="1" vertex="1">
          <mxGeometry x="1020" y="-290" width="550" height="170" as="geometry" />
        </mxCell>
        <mxCell id="pMtkfUqyW9QqRJvnxvzZ-34" style="edgeStyle=orthogonalEdgeStyle;rounded=0;sketch=1;hachureGap=4;jiggle=2;curveFitting=1;orthogonalLoop=1;jettySize=auto;html=1;exitX=0;exitY=0.5;exitDx=0;exitDy=0;entryX=1;entryY=0.25;entryDx=0;entryDy=0;fontFamily=Architects Daughter;fontSource=https%3A%2F%2Ffonts.googleapis.com%2Fcss%3Ffamily%3DArchitects%2BDaughter;" parent="1" source="pMtkfUqyW9QqRJvnxvzZ-31" target="pMtkfUqyW9QqRJvnxvzZ-5" edge="1">
          <mxGeometry relative="1" as="geometry" />
        </mxCell>
        <mxCell id="pMtkfUqyW9QqRJvnxvzZ-31" value="&lt;div&gt;Rx&amp;nbsp;&lt;/div&gt;&lt;div&gt;Connector&lt;/div&gt;" style="whiteSpace=wrap;html=1;sketch=1;hachureGap=4;jiggle=2;curveFitting=1;fontFamily=Architects Daughter;fontSource=https%3A%2F%2Ffonts.googleapis.com%2Fcss%3Ffamily%3DArchitects%2BDaughter;" parent="1" vertex="1">
          <mxGeometry x="1590" y="10" width="120" height="60" as="geometry" />
        </mxCell>
        <mxCell id="pMtkfUqyW9QqRJvnxvzZ-39" style="edgeStyle=orthogonalEdgeStyle;rounded=0;sketch=1;hachureGap=4;jiggle=2;curveFitting=1;orthogonalLoop=1;jettySize=auto;html=1;exitX=0.5;exitY=1;exitDx=0;exitDy=0;entryX=0.25;entryY=0;entryDx=0;entryDy=0;fontFamily=Architects Daughter;fontSource=https%3A%2F%2Ffonts.googleapis.com%2Fcss%3Ffamily%3DArchitects%2BDaughter;" parent="1" source="pMtkfUqyW9QqRJvnxvzZ-36" target="pMtkfUqyW9QqRJvnxvzZ-5" edge="1">
          <mxGeometry relative="1" as="geometry">
            <Array as="points">
              <mxPoint x="1210" y="-30" />
              <mxPoint x="1270" y="-30" />
            </Array>
          </mxGeometry>
        </mxCell>
        <mxCell id="pMtkfUqyW9QqRJvnxvzZ-42" value="&lt;font style=&quot;font-size: 15px;&quot;&gt;I2C&lt;/font&gt;" style="edgeLabel;html=1;align=center;verticalAlign=middle;resizable=0;points=[];sketch=1;hachureGap=4;jiggle=2;curveFitting=1;fontFamily=Architects Daughter;fontSource=https%3A%2F%2Ffonts.googleapis.com%2Fcss%3Ffamily%3DArchitects%2BDaughter;" parent="pMtkfUqyW9QqRJvnxvzZ-39" vertex="1" connectable="0">
          <mxGeometry x="-0.5846" y="-1" relative="1" as="geometry">
            <mxPoint as="offset" />
          </mxGeometry>
        </mxCell>
        <mxCell id="pMtkfUqyW9QqRJvnxvzZ-36" value="" style="whiteSpace=wrap;html=1;hachureGap=4;fontFamily=Architects Daughter;fontSource=https%3A%2F%2Ffonts.googleapis.com%2Fcss%3Ffamily%3DArchitects%2BDaughter;fillColor=none;" parent="1" vertex="1">
          <mxGeometry x="1060" y="-250" width="300" height="100" as="geometry" />
        </mxCell>
        <mxCell id="pMtkfUqyW9QqRJvnxvzZ-38" value="&lt;h1 class=&quot;entry-title&quot;&gt;&lt;font style=&quot;font-size: 12px;&quot;&gt;MPU-6050&lt;/font&gt;&lt;/h1&gt;" style="text;html=1;align=center;verticalAlign=middle;resizable=0;points=[];autosize=1;strokeColor=none;fillColor=none;fontFamily=Architects Daughter;fontSource=https%3A%2F%2Ffonts.googleapis.com%2Fcss%3Ffamily%3DArchitects%2BDaughter;" parent="1" vertex="1">
          <mxGeometry x="1170" y="-300" width="80" height="70" as="geometry" />
        </mxCell>
        <mxCell id="pMtkfUqyW9QqRJvnxvzZ-43" value="" style="whiteSpace=wrap;html=1;hachureGap=4;fontFamily=Architects Daughter;fontSource=https%3A%2F%2Ffonts.googleapis.com%2Fcss%3Ffamily%3DArchitects%2BDaughter;fillColor=none;dashed=1;dashPattern=8 8;strokeWidth=1;rounded=1;" parent="1" vertex="1">
          <mxGeometry x="1530" y="-10" width="240" height="240" as="geometry" />
        </mxCell>
        <mxCell id="pMtkfUqyW9QqRJvnxvzZ-44" value="&lt;div&gt;Wireless&amp;nbsp;&lt;/div&gt;&lt;div&gt;Communication&lt;/div&gt;" style="text;html=1;align=center;verticalAlign=middle;resizable=0;points=[];autosize=1;strokeColor=none;fillColor=none;fontFamily=Architects Daughter;fontSource=https%3A%2F%2Ffonts.googleapis.com%2Fcss%3Ffamily%3DArchitects%2BDaughter;" parent="1" vertex="1">
          <mxGeometry x="1610" y="-70" width="100" height="40" as="geometry" />
        </mxCell>
        <mxCell id="pMtkfUqyW9QqRJvnxvzZ-45" value="&lt;div&gt;Tx&amp;nbsp;&lt;/div&gt;&lt;div&gt;Connector&lt;/div&gt;" style="whiteSpace=wrap;html=1;sketch=1;hachureGap=4;jiggle=2;curveFitting=1;fontFamily=Architects Daughter;fontSource=https%3A%2F%2Ffonts.googleapis.com%2Fcss%3Ffamily%3DArchitects%2BDaughter;" parent="1" vertex="1">
          <mxGeometry x="1590" y="100" width="120" height="60" as="geometry" />
        </mxCell>
        <mxCell id="pMtkfUqyW9QqRJvnxvzZ-48" value="&lt;div&gt;Battery&lt;/div&gt;&lt;div&gt;Health&lt;/div&gt;" style="text;html=1;align=center;verticalAlign=middle;resizable=0;points=[];autosize=1;strokeColor=none;fillColor=none;fontFamily=Architects Daughter;fontSource=https%3A%2F%2Ffonts.googleapis.com%2Fcss%3Ffamily%3DArchitects%2BDaughter;" parent="1" vertex="1">
          <mxGeometry x="810" y="398" width="70" height="40" as="geometry" />
        </mxCell>
        <mxCell id="pMtkfUqyW9QqRJvnxvzZ-50" value="" style="endArrow=classic;html=1;rounded=0;sketch=1;hachureGap=4;jiggle=2;curveFitting=1;fontFamily=Architects Daughter;fontSource=https%3A%2F%2Ffonts.googleapis.com%2Fcss%3Ffamily%3DArchitects%2BDaughter;entryX=0;entryY=0.75;entryDx=0;entryDy=0;" parent="1" target="pMtkfUqyW9QqRJvnxvzZ-3" edge="1">
          <mxGeometry width="50" height="50" relative="1" as="geometry">
            <mxPoint x="880" y="418" as="sourcePoint" />
            <mxPoint x="930" y="368" as="targetPoint" />
            <Array as="points">
              <mxPoint x="930" y="418" />
              <mxPoint x="930" y="410" />
              <mxPoint x="930" y="395" />
            </Array>
          </mxGeometry>
        </mxCell>
        <mxCell id="pMtkfUqyW9QqRJvnxvzZ-51" value="&lt;h2 id=&quot;test-neo-6m-esp32-raw-data&quot; class=&quot;wp-block-heading&quot;&gt;&lt;font style=&quot;font-size: 12px;&quot;&gt;NEO-6M&lt;/font&gt;&lt;/h2&gt;" style="text;html=1;align=center;verticalAlign=middle;resizable=0;points=[];autosize=1;strokeColor=none;fillColor=none;fontFamily=Architects Daughter;fontSource=https%3A%2F%2Ffonts.googleapis.com%2Fcss%3Ffamily%3DArchitects%2BDaughter;" parent="1" vertex="1">
          <mxGeometry x="1425" y="-277" width="70" height="60" as="geometry" />
        </mxCell>
      </root>
    </mxGraphModel>
  </diagram>
</mxfile>
